{"title":"Salamander S01E08 720P x264 RB58.mp4","uid":9686790,"size":861357437,"categoryP":"video","categoryS":"hd___tv_shows","magnet":"?xt=urn:btih:ba0c9f4627a24478fce1054519bb37491d63290f&amp;dn=Salamander+S01E08+720P+x264+RB58.mp4&amp;tr=udp%3A%2F%2Ftracker.openbittorrent.com%3A80&amp;tr=udp%3A%2F%2Fopen.demonii.com%3A1337&amp;tr=udp%3A%2F%2Ftracker.coppersurfer.tk%3A6969&amp;tr=udp%3A%2F%2Fexodus.desync.com%3A6969","seeders":1,"leechers":0,"uploader":"RedBaron58","files":1,"time":1393782771,"description":"Salamander Season 1 Episode 8 720P x264 Hard coded English subtitles\n &lt;a href=&quot;\nhttp://www.imdb.com/title/tt2569488/&quot; rel=&quot;nofollow&quot; target=&quot;_NEW&quot;&gt;\nhttp://www.imdb.com/title/tt2569488/&lt;/a&gt; \n\n\n\nPlease be patient My upload speed is limited, but I am online most the time and during the night.\nThank you for your kind comments and thumbs ups on my other torrents, your feedback is welcome.\n\nIn Flemish (Dutch) and French with hardcoded English Substitles done by the BBC.\n\n\nAbout the Episode:\nThe man behind the Jonkhere bank raid instructs Klaus to send the envelopes of incriminating \nevidence to more members of Salamander, leading to resignation, disappearance and suicide, \nwhich threatens the stability of the country.\n\n\nI hope you enjoy.\n\n\nTechnical:\n\nGeneral\nComplete name                            : E:Salamander S01E08 720P x264 RB58.mp4\nFormat                                   : MPEG-4\nFormat profile                           : Base Media\nCodec ID                                 : isom\nFile size                                : 821 MiB\nDuration                                 : 47mn 46s\nOverall bit rate mode                    : Variable\nOverall bit rate                         : 2 404 Kbps\nWriting application                      : Lavf54.63.104\n\nVideo\nID                                       : 1\nFormat                                   : AVC\nFormat/Info                              : Advanced Video Codec\nFormat profile                           : &lt;a class=&quot;__cf_email__&quot; href=&quot;/cdn-cgi/l/email-protection&quot; data-cfemail=&quot;d69ebfb1be969ae2f8e7&quot;&gt;[email&amp;#160;protected]&lt;/a&gt;&lt;script cf-hash='f9e31' type=&quot;text/javascript&quot;&gt;\n/* &lt;![CDATA[ */!function(){try{var t=&quot;currentScript&quot;in document?document.currentScript:function(){for(var t=document.getElementsByTagName(&quot;script&quot;),e=t.length;e--;)if(t[e].getAttribute(&quot;cf-hash&quot;))return t[e]}();if(t&amp;&amp;t.previousSibling){var e,r,n,i,c=t.previousSibling,a=c.getAttribute(&quot;data-cfemail&quot;);if(a){for(e=&quot;&quot;,r=parseInt(a.substr(0,2),16),n=2;a.length-n;n+=2)i=parseInt(a.substr(n,2),16)^r,e+=String.fromCharCode(i);e=document.createTextNode(e),c.parentNode.replaceChild(e,c)}}}catch(u){}}();/* ]]&gt; */&lt;/script&gt;\nFormat settings, CABAC                   : Yes\nFormat settings, ReFrames                : 2 frames\nCodec ID                                 : avc1\nCodec ID/Info                            : Advanced Video Coding\nDuration                                 : 47mn 46s\nBit rate mode                            : Variable\nBit rate                                 : 2 305 Kbps\nMaximum bit rate                         : 3 500 Kbps\nWidth                                    : 1 280 pixels\nHeight                                   : 720 pixels\nDisplay aspect ratio                     : 16:9\nFrame rate mode                          : Constant\nFrame rate                               : 25.000 fps\nColor space                              : YUV\nChroma subsampling                       : 4:2:0\nBit depth                                : 8 bits\nScan type                                : Progressive\nBits/(Pixel*Frame)                       : 0.100\nStream size                              : 788 MiB (96%)\n\nAudio\nID                                       : 2\nFormat                                   : AAC\nFormat/Info                              : Advanced Audio Codec\nFormat profile                           : LC\nCodec ID                                 : 40\nDuration                                 : 47mn 46s\nBit rate mode                            : Constant\nBit rate                                 : 93.5 Kbps\nChannel(s)                               : 2 channels\nChannel positions                        : Front: L R\nSampling rate                            : 48.0 KHz\nCompression mode                         : Lossy\nStream size                              : 31.9 MiB (4%)","torrent":{"xt":"urn:btih:ba0c9f4627a24478fce1054519bb37491d63290f","amp;dn":"Salamander+S01E08+720P+x264+RB58.mp4","amp;tr":["udp%3A%2F%2Ftracker.openbittorrent.com%3A80","udp%3A%2F%2Fopen.demonii.com%3A1337","udp%3A%2F%2Ftracker.coppersurfer.tk%3A6969","udp%3A%2F%2Fexodus.desync.com%3A6969"],"infoHash":"ba0c9f4627a24478fce1054519bb37491d63290f","infoHashBuffer":{"type":"Buffer","data":[186,12,159,70,39,162,68,120,252,225,5,69,25,187,55,73,29,99,41,15]},"announce":[],"urlList":[]}}